<?xml version="1.0" encoding="utf-8"?>
<!-- Generator: Adobe Illustrator 24.1.2, SVG Export Plug-In . SVG Version: 6.00 Build 0)  -->
<svg version="1.1" id="_xB7__xB9_ÀÌ_xBE_î_1" xmlns="http://www.w3.org/2000/svg" xmlns:xlink="http://www.w3.org/1999/xlink"
	 x="0px" y="0px" viewBox="0 0 595.28 841.89" style="enable-background:new 0 0 595.28 841.89;" xml:space="preserve">
<style type="text/css">
	.st0{fill:#254482;}
	.st1{fill:#FFFFFF;}
</style>
<g>
	<g>
		<g>
			<path class="st0" d="M460.05,339.57c0,0.04,0.53-6.85-3.79-10.39c-3.24-2.65-7.64-3.25-13.38-1.63l-140.85,38.26
				c-0.68,0.24-3.12,0.65-5.78,0.68c-2.67-0.03-5.12-0.44-5.79-0.68l-140.87-38.26c-5.76-1.63-10.15-1.02-13.39,1.63
				c-4.32,3.54-3.79,10.43-3.8,10.39v125.45c0,2.08-0.23,4.1,1.2,5.62c1.32,1.25,3.2,1.27,5.69,1.27h156.88h0.16h156.85
				c2.49,0,4.36-0.02,5.68-1.27c1.44-1.52,1.2-3.54,1.2-5.62V339.57z"/>
		</g>
		<polygon class="st1" points="239.21,384.8 248.62,384.8 248.62,373.22 228,373.22 204.79,415.33 181.57,373.22 160.86,373.22 
			160.86,384.8 170.29,384.8 167.87,437.27 158.89,437.27 158.89,448.89 189.73,448.89 189.73,437.27 180.63,437.27 182.14,398.27 
			203.75,436.23 205.47,436.23 227.11,398.27 228.6,437.27 219.52,437.27 219.52,448.89 250.59,448.89 250.59,437.27 241.62,437.27 
					"/>
		<g>
			<path class="st1" d="M302.94,417.05c0-5.06-1.28-9.43-3.9-12.66c-3.59-4.38-9.49-6.8-18.09-6.8c-13.67,0-20.01,6.59-20.01,12.79
				c0,4.13,2.88,6.77,6.65,6.77c3.8,0,6.82-2.74,6.82-6.55c0-0.69-0.25-1.86-0.47-2.49c1.16-0.49,2.73-0.86,4.93-0.86
				c4.5,0,7.83,1.05,9.9,3.67c1.27,1.63,1.95,3.93,1.95,6.92v4.04c-2.79-0.71-7.57-1.37-12.76-1.37c-11.96,0-20.22,5.73-20.22,15.14
				c0,9.44,7.67,14.16,16.3,14.16c6.79,0,12.89-3.03,16.9-6.44v5.5h19.47v-10.37h-7.46V417.05z M290.73,436.23
				c-3.79,2.75-8.16,4.49-12.66,4.49c-4.47,0-7.46-2.2-7.46-6.21c0-4.58,3.69-7.33,9.78-7.33c3.89,0,7.48,0.47,10.34,1.14V436.23z"
				/>
			<path class="st1" d="M340.89,397.59c-15.51,0-25.51,11.99-25.51,26.22c0,15.63,11.37,26.01,27.83,26.01
				c7.34,0,13.78-1.5,19.09-4.62l1.01-11.25c-5.86,3.31-12.19,5.26-18.27,5.26c-8.41,0-14.83-3.42-16.57-11.25h36.35
				c0.31-1.71,0.55-4.26,0.55-6.18C365.38,408.4,356.98,397.59,340.89,397.59 M328.36,419.24c1.38-8.31,6.9-11.52,12.42-11.52
				c7.38,0,11.85,4.61,12.08,11.52H328.36z"/>
			<path class="st1" d="M385.29,390.8c4.48,0,8.51-3.69,8.51-8.28c0-4.61-3.81-8.28-8.28-8.28c-4.51,0-8.52,3.67-8.52,8.28
				C377,387.1,380.8,390.8,385.29,390.8"/>
		</g>
		<polygon class="st1" points="392.89,398.51 372.65,398.51 372.65,409.1 380.35,409.1 380.35,438.52 372.65,438.52 372.65,448.89 
			400.34,448.89 400.34,438.52 392.89,438.52 		"/>
		<polygon class="st1" points="427.38,367.58 407.03,367.58 407.03,378.18 414.86,378.18 414.86,438.52 407.03,438.52 
			407.03,448.89 434.87,448.89 434.87,438.52 427.38,438.52 		"/>
	</g>
</g>
</svg>
